<svg viewBox="0 0 310 310" xmlns="http://www.w3.org/2000/svg">
<rect width="100%" height="100%" fill="#ffffff" />
<path d="M10 300L80 300L80 230L10 230ZM90 300L130 300L130 290L120 290L120 280L130 280L130 260L120 260L120 250L110 250L110 240L100 240L100 260L110 260L110 290L90 290ZM140 300L180 300L180 290L170 290L170 270L180 270L180 280L190 280L190 260L170 260L170 250L160 250L160 280L150 280L150 290L140 290ZM210 300L220 300L220 280L210 280ZM250 300L270 300L270 280L260 280L260 270L280 270L280 260L270 260L270 250L260 250L260 230L280 230L280 220L270 220L270 210L260 210L260 200L270 200L270 190L250 190L250 210L240 210L240 200L230 200L230 210L220 210L220 200L210 200L210 240L190 240L190 250L200 250L200 270L220 270L220 280L230 280L230 260L250 260L250 280L240 280L240 290L250 290ZM290 300L300 300L300 290L290 290ZM20 290L20 240L70 240L70 290ZM130 290L140 290L140 280L130 280ZM190 290L200 290L200 280L190 280ZM30 280L60 280L60 250L30 250ZM90 280L100 280L100 270L90 270ZM140 280L150 280L150 270L140 270ZM280 280L300 280L300 260L290 260L290 270L280 270ZM140 260L150 260L150 240L140 240L140 230L130 230L130 250L140 250ZM280 260L290 260L290 240L280 240ZM220 250L220 220L250 220L250 250ZM90 240L100 240L100 230L110 230L110 220L120 220L120 230L130 230L130 220L140 220L140 230L150 230L150 220L160 220L160 200L170 200L170 190L180 190L180 180L170 180L170 170L160 170L160 180L150 180L150 210L130 210L130 200L110 200L110 210L90 210ZM110 240L120 240L120 230L110 230ZM160 240L180 240L180 230L170 230L170 220L160 220ZM230 240L240 240L240 230L230 230ZM290 240L300 240L300 220L290 220ZM180 230L190 230L190 220L180 220ZM10 220L50 220L50 210L40 210L40 200L50 200L50 190L10 190L10 200L30 200L30 210L10 210ZM60 220L80 220L80 210L70 210L70 200L60 200ZM170 220L180 220L180 200L170 200ZM190 220L200 220L200 210L190 210ZM280 220L290 220L290 210L280 210ZM80 210L90 210L90 200L80 200ZM70 200L80 200L80 190L70 190ZM100 200L110 200L110 190L100 190ZM130 200L140 200L140 190L130 190ZM200 200L210 200L210 180L200 180L200 170L190 170L190 190L200 190ZM290 200L300 200L300 170L290 170L290 180L270 180L270 190L290 190ZM120 190L130 190L130 180L120 180ZM230 190L250 190L250 180L240 180L240 170L250 170L250 160L260 160L260 150L250 150L250 130L230 130L230 150L220 150L220 160L230 160L230 170L220 170L220 160L210 160L210 150L220 150L220 140L210 140L210 110L230 110L230 120L250 120L250 130L270 130L270 120L280 120L280 110L250 110L250 90L240 90L240 100L210 100L210 90L200 90L200 70L190 70L190 110L180 110L180 120L190 120L190 160L200 160L200 170L210 170L210 180L230 180ZM10 180L20 180L20 160L10 160ZM30 180L40 180L40 160L50 160L50 150L70 150L70 140L80 140L80 130L70 130L70 120L80 120L80 110L70 110L70 100L60 100L60 130L50 130L50 140L30 140ZM70 180L80 180L80 170L70 170ZM110 180L120 180L120 160L110 160ZM90 170L100 170L100 150L70 150L70 160L90 160ZM130 170L140 170L140 160L130 160ZM140 160L150 160L150 140L140 140L140 110L130 110L130 100L140 100L140 90L130 90L130 80L120 80L120 120L110 120L110 140L120 140L120 130L130 130L130 140L120 140L120 150L140 150ZM160 160L180 160L180 130L170 130L170 140L160 140ZM290 160L300 160L300 130L290 130L290 140L280 140L280 150L290 150ZM100 150L110 150L110 140L100 140ZM10 140L30 140L30 130L40 130L40 120L20 120L20 130L10 130ZM90 140L100 140L100 130L90 130ZM150 130L160 130L160 120L150 120ZM220 130L230 130L230 120L220 120ZM10 120L20 120L20 90L10 90ZM90 120L110 120L110 110L100 110L100 100L90 100ZM160 120L170 120L170 110L180 110L180 100L160 100ZM290 120L300 120L300 90L290 90L290 100L280 100L280 110L290 110ZM30 110L40 110L40 90L30 90ZM140 110L150 110L150 100L140 100ZM70 100L90 100L90 90L70 90ZM270 100L280 100L280 90L270 90ZM150 90L160 90L160 50L170 50L170 30L160 30L160 20L150 20L150 30L140 30L140 20L150 20L150 10L110 10L110 30L120 30L120 20L130 20L130 40L140 40L140 50L150 50L150 60L140 60L140 70L150 70ZM210 90L220 90L220 60L210 60ZM10 80L80 80L80 10L10 10ZM90 80L100 80L100 70L110 70L110 80L120 80L120 60L140 60L140 50L120 50L120 40L110 40L110 60L90 60ZM130 80L140 80L140 70L130 70ZM170 80L180 80L180 70L170 70ZM230 80L300 80L300 10L230 10ZM20 70L20 20L70 20L70 70ZM240 70L240 20L290 20L290 70ZM30 60L60 60L60 30L30 30ZM170 60L200 60L200 40L210 40L210 50L220 50L220 30L190 30L190 10L180 10L180 20L170 20L170 30L180 30L180 50L170 50ZM250 60L280 60L280 30L250 30ZM90 40L100 40L100 30L90 30ZM90 20L100 20L100 10L90 10Z" fill="#000000" fill-rule="evenodd" />
</svg>
