<svg viewBox="0 0 552 258" xmlns="http://www.w3.org/2000/svg">
<rect width="100%" height="100%" fill="#ffffff" />
<path stroke="#000000" stroke-width="6" d="M12 226L12 9M63 226L63 9M102 226L102 9M135 226L135 9M153 226L153 9M201 226L201 9M210 226L210 9M267 226L267 9M285 226L285 9M309 226L309 9M366 226L366 9M399 226L399 9M420 226L420 9M441 226L441 9M498 226L498 9M507 226L507 9M540 226L540 9" />
<path stroke="#000000" stroke-width="3" d="M19.50 226L19.50 9M28.50 226L28.50 9M43.50 226L43.50 9M76.50 226L76.50 9M88.50 226L88.50 9M142.50 226L142.50 9M223.50 226L223.50 9M235.50 226L235.50 9M259.50 226L259.50 9M274.50 226L274.50 9M334.50 226L334.50 9M340.50 226L340.50 9M373.50 226L373.50 9M406.50 226L406.50 9M460.50 226L460.50 9M487.50 226L487.50 9M532.50 226L532.50 9" />
<path stroke="#000000" stroke-width="9" d="M52.50 226L52.50 9M112.50 226L112.50 9M124.50 226L124.50 9M163.50 226L163.50 9M178.50 226L178.50 9M190.50 226L190.50 9M244.50 226L244.50 9M295.50 226L295.50 9M319.50 226L319.50 9M355.50 226L355.50 9M388.50 226L388.50 9M430.50 226L430.50 9M451.50 226L451.50 9M475.50 226L475.50 9M523.50 226L523.50 9" />
<path d="M157.06 246.92Q156.71 246.53 156.71 245.98L156.71 228.23Q156.71 227.65 157.06 227.29Q157.44 226.90 157.93 226.90L160.02 226.90Q160.40 226.90 160.72 227.16Q161.02 227.44 161.13 227.81L163.22 235.18L165.31 227.81Q165.39 227.44 165.71 227.18Q166.04 226.90 166.42 226.90L168.51 226.90Q169.00 226.90 169.35 227.29Q169.73 227.68 169.73 228.23L169.73 245.98Q169.73 246.53 169.35 246.92Q169.00 247.29 168.51 247.29Q168.02 247.29 167.64 246.92Q167.29 246.53 167.29 246.01L167.29 229.89L164.36 240.23Q164.20 240.65 163.90 240.91Q163.63 241.17 163.22 241.17Q162.84 241.17 162.51 240.91Q162.22 240.65 162.11 240.26L159.15 229.89L159.15 246.01Q159.15 246.53 158.77 246.92Q158.42 247.29 157.93 247.29Q157.44 247.29 157.06 246.92ZM177.20 240.36Q177.04 238.98 177.01 237.34L177.01 236.97Q177.01 235.31 177.17 233.90Q177.36 232.50 177.80 231.14Q178.26 229.81 178.94 228.85Q179.59 227.91 180.65 227.34Q181.62 226.77 182.90 226.72L183.03 226.72Q184.63 226.72 185.88 227.70Q187.10 228.69 187.45 230.28L187.45 230.54Q187.45 231.06 187.10 231.45Q186.75 231.84 186.26 231.84Q185.75 231.84 185.50 231.51Q185.20 231.17 184.99 230.62Q184.74 230.05 184.44 229.79Q184.44 229.79 184.44 229.79Q183.87 229.32 183.09 229.32L182.95 229.32Q179.45 229.50 179.45 236.77L179.45 237.24Q179.48 238.20 179.53 238.95Q179.59 239.71 179.72 240.62Q179.83 241.56 180.10 242.23Q180.35 242.91 180.73 243.51Q181.11 244.11 181.70 244.45Q182.33 244.79 183.09 244.79Q183.85 244.79 184.36 244.40Q184.96 244.01 185.07 243.33Q185.15 242.86 185.47 242.57Q185.83 242.26 186.26 242.26Q186.75 242.26 187.10 242.65Q187.45 243.04 187.45 243.56L187.45 243.82Q187.18 245.39 185.96 246.38Q184.74 247.36 183.09 247.36Q181.73 247.36 180.73 246.82Q179.64 246.27 178.99 245.33Q178.31 244.40 177.85 243.07Q177.39 241.74 177.20 240.36ZM195.85 246.90Q195.47 246.51 195.47 245.96L195.47 228.43Q195.47 227.89 195.82 227.50Q196.17 227.11 196.69 227.11L201.25 227.11Q204.07 227.11 205.88 228.59Q207.73 230.07 207.73 232.89Q207.73 235.00 206.70 236.38Q205.04 238.67 201.25 238.67L197.91 238.67L197.91 245.96Q197.91 246.53 197.53 246.92Q197.18 247.29 196.69 247.29Q196.20 247.29 195.85 246.90M197.91 229.71L197.91 236.09L201.25 236.09Q205.15 236.09 205.29 233.07L205.29 232.89Q205.29 231.12 204.18 230.41Q203.12 229.71 201.25 229.71L197.91 229.71ZM213.84 237.47L213.84 236.74Q213.84 236.25 214.20 235.91Q214.55 235.57 215.07 235.57L225.92 235.57Q226.43 235.57 226.78 235.93Q227.14 236.27 227.14 236.74L227.14 237.47Q227.14 237.94 226.78 238.30Q226.43 238.64 225.92 238.64L215.07 238.64Q214.55 238.64 214.20 238.30Q213.84 237.96 213.84 237.47ZM233.85 246.90Q233.47 246.51 233.47 245.96L233.47 228.43Q233.47 227.89 233.82 227.50Q234.17 227.11 234.69 227.11L239.25 227.11Q242.07 227.11 243.88 228.59Q245.73 230.07 245.73 232.89Q245.73 235.00 244.70 236.38Q243.04 238.67 239.25 238.67L235.91 238.67L235.91 245.96Q235.91 246.53 235.53 246.92Q235.18 247.29 234.69 247.29Q234.20 247.29 233.85 246.90M235.91 229.71L235.91 236.09L239.25 236.09Q243.15 236.09 243.29 233.07L243.29 232.89Q243.29 231.12 242.18 230.41Q241.12 229.71 239.25 229.71L235.91 229.71ZM253.63 246.45Q253.25 246.06 253.25 245.54Q253.25 244.99 253.61 244.60Q253.96 244.24 254.48 244.24L257.08 244.24L257.08 229.76L255.02 229.76Q254.53 229.76 254.18 229.37Q253.80 228.98 253.80 228.46Q253.80 227.94 254.15 227.55Q254.50 227.16 255.02 227.16L261.42 227.16Q261.93 227.16 262.29 227.55Q262.64 227.94 262.64 228.46Q262.64 228.98 262.26 229.37Q261.91 229.76 261.42 229.76L259.36 229.76L259.36 244.24L261.96 244.24Q262.48 244.24 262.83 244.60Q263.18 244.99 263.18 245.54Q263.18 246.06 262.80 246.45Q262.45 246.84 261.96 246.84L254.48 246.84Q253.99 246.84 253.63 246.45ZM271.60 246.92Q271.25 246.53 271.25 245.98L271.25 245.96Q271.25 245.57 271.39 245.31L275.73 236.82L271.55 228.85Q271.41 228.54 271.41 228.17Q271.41 227.60 271.77 227.24Q272.15 226.85 272.63 226.85Q273.18 226.85 273.50 227.18L277.22 234.34L280.72 227.55Q281.23 226.85 281.80 226.85Q282.29 226.85 282.64 227.24Q283.02 227.63 283.02 228.17Q283.02 228.54 282.89 228.85L278.71 236.82L283.05 245.31Q283.19 245.57 283.19 245.96Q283.19 246.51 282.81 246.90Q282.45 247.26 281.97 247.26Q281.40 247.26 281.04 246.92L277.22 239.34L273.56 246.61Q273.07 247.29 272.47 247.29Q271.98 247.29 271.60 246.92ZM289.84 237.47L289.84 236.74Q289.84 236.25 290.20 235.91Q290.55 235.57 291.07 235.57L301.92 235.57Q302.43 235.57 302.78 235.93Q303.14 236.27 303.14 236.74L303.14 237.47Q303.14 237.94 302.78 238.30Q302.43 238.64 301.92 238.64L291.07 238.64Q290.55 238.64 290.20 238.30Q289.84 237.96 289.84 237.47ZM309.09 229.45Q308.71 229.06 308.71 228.51Q308.71 227.96 309.06 227.57Q309.41 227.21 309.93 227.21L320.51 227.21Q321.02 227.21 321.38 227.60Q321.73 227.99 321.73 228.54Q321.73 229.06 321.35 229.45Q321.00 229.84 320.51 229.84L316.39 229.84L316.39 245.98Q316.39 246.51 316.03 246.90Q315.68 247.29 315.22 247.29Q314.76 247.29 314.41 246.92Q314.05 246.53 314.05 245.98L314.05 229.84L309.93 229.84Q309.44 229.84 309.09 229.45ZM328.25 240.75Q327.79 238.93 327.79 237.08L327.79 237.00Q327.79 235.59 328.01 234.19Q328.25 232.76 328.77 231.43Q329.28 230.07 330.07 229.06Q330.80 228.04 331.89 227.44Q332.94 226.82 334.22 226.82Q335.66 226.82 336.88 227.70Q338.12 228.56 338.94 230.02Q339.75 231.48 340.19 233.30Q340.65 235.10 340.65 237.00L340.65 237.08Q340.65 238.93 340.19 240.75Q339.75 242.55 338.97 244.06Q338.15 245.54 336.90 246.45Q335.68 247.36 334.22 247.36Q332.78 247.36 331.56 246.45Q330.31 245.54 329.50 244.06Q328.71 242.55 328.25 240.75M330.45 234.58Q330.23 235.83 330.23 236.97L330.23 237.08Q330.23 238.28 330.48 239.55Q330.72 240.83 331.18 242.00Q331.64 243.22 332.43 244.01Q333.24 244.81 334.22 244.81Q335.20 244.81 336.01 244.01Q336.80 243.22 337.26 242.00Q337.72 240.83 337.96 239.55Q338.21 238.25 338.21 237.08Q338.21 235.80 337.96 234.50Q337.75 233.20 337.28 232.03Q336.82 230.86 336.04 230.10Q335.22 229.35 334.22 229.35Q333.22 229.35 332.37 230.13Q331.59 230.91 331.15 232.13Q330.69 233.30 330.45 234.58ZM347.25 240.75Q346.79 238.93 346.79 237.08L346.79 237.00Q346.79 235.59 347.01 234.19Q347.25 232.76 347.77 231.43Q348.28 230.07 349.07 229.06Q349.80 228.04 350.89 227.44Q351.94 226.82 353.22 226.82Q354.66 226.82 355.88 227.70Q357.12 228.56 357.94 230.02Q358.75 231.48 359.19 233.30Q359.65 235.10 359.65 237.00L359.65 237.08Q359.65 238.93 359.19 240.75Q358.75 242.55 357.97 244.06Q357.15 245.54 355.90 246.45Q354.68 247.36 353.22 247.36Q351.78 247.36 350.56 246.45Q349.31 245.54 348.50 244.06Q347.71 242.55 347.25 240.75M349.45 234.58Q349.23 235.83 349.23 236.97L349.23 237.08Q349.23 238.28 349.48 239.55Q349.72 240.83 350.18 242.00Q350.64 243.22 351.43 244.01Q352.24 244.81 353.22 244.81Q354.20 244.81 355.01 244.01Q355.80 243.22 356.26 242.00Q356.72 240.83 356.96 239.55Q357.21 238.25 357.21 237.08Q357.21 235.80 356.96 234.50Q356.75 233.20 356.28 232.03Q355.82 230.86 355.04 230.10Q354.22 229.35 353.22 229.35Q352.22 229.35 351.37 230.13Q350.59 230.91 350.15 232.13Q349.69 233.30 349.45 234.58ZM366.85 246.32Q366.47 245.93 366.47 245.41L366.47 228.10Q366.47 227.57 366.82 227.21Q367.20 226.82 367.69 226.82Q368.18 226.82 368.53 227.21Q368.91 227.57 368.91 228.10L368.91 244.11L377.51 244.11Q378.02 244.11 378.38 244.50Q378.73 244.89 378.73 245.41Q378.73 245.93 378.35 246.32Q378.00 246.71 377.51 246.71L367.69 246.71Q367.20 246.71 366.85 246.32ZM387.48 246.11Q385.90 244.81 385.63 242.81L385.63 242.60Q385.63 242.08 385.98 241.71Q386.36 241.32 386.85 241.32Q387.31 241.32 387.67 241.64Q388.02 241.95 388.07 242.42Q388.24 243.59 389.13 244.21Q389.97 244.84 391.08 244.84Q392.39 244.84 393.39 244.01Q394.37 243.28 394.37 241.74Q394.37 241.12 394.18 240.59Q393.99 240.10 393.61 239.73Q393.25 239.37 392.95 239.16Q392.66 238.93 392.14 238.67Q391.76 238.46 390.97 238.07Q390.22 237.65 389.75 237.39Q389.29 237.10 388.59 236.69Q387.88 236.25 387.48 235.83Q387.04 235.39 386.61 234.79Q386.20 234.19 385.98 233.43Q385.79 232.70 385.79 231.79Q385.79 229.66 387.42 228.28Q389.05 226.87 391.19 226.82L391.35 226.82Q393.28 226.82 394.64 227.83Q396.05 228.85 396.51 230.59Q396.56 230.80 396.56 230.91Q396.56 231.43 396.21 231.82Q395.86 232.18 395.34 232.18Q394.83 232.18 394.53 231.84Q394.20 231.48 393.96 230.93Q393.69 230.31 393.42 230.05Q392.68 229.37 391.38 229.37Q390.16 229.37 389.21 230.02Q388.24 230.67 388.24 231.77Q388.24 232.94 388.80 233.56Q389.32 234.19 390.30 234.71Q390.73 235.00 391.68 235.46Q392.63 235.96 393.14 236.27Q393.69 236.56 394.50 237.16Q395.29 237.73 395.72 238.33Q396.18 238.90 396.48 239.79Q396.81 240.67 396.81 241.74Q396.81 243.95 395.42 245.46Q394.04 246.97 392.01 247.34Q391.52 247.42 391.03 247.42Q389.05 247.42 387.48 246.11Z" fill="#000000" />
</svg>
