<svg xmlns="http://www.w3.org/2000/svg" width="600" height="400" viewBox="0 0 600 400">
  <rect width="600" height="400" fill="white"/>
  <text x="300" y="25" text-anchor="middle" font-size="16" font-weight="bold" font-family="Arial" fill="#333">Monthly Revenue</text>
  <line x1="60" y1="340" x2="580" y2="340" stroke="#eee" stroke-width="1"/>
    <text x="52" y="344" text-anchor="end" font-size="10" font-family="Arial" fill="#888">0</text>
  <line x1="60" y1="280" x2="580" y2="280" stroke="#eee" stroke-width="1"/>
    <text x="52" y="284" text-anchor="end" font-size="10" font-family="Arial" fill="#888">40</text>
  <line x1="60" y1="220" x2="580" y2="220" stroke="#eee" stroke-width="1"/>
    <text x="52" y="224" text-anchor="end" font-size="10" font-family="Arial" fill="#888">80</text>
  <line x1="60" y1="160" x2="580" y2="160" stroke="#eee" stroke-width="1"/>
    <text x="52" y="164" text-anchor="end" font-size="10" font-family="Arial" fill="#888">120</text>
  <line x1="60" y1="100" x2="580" y2="100" stroke="#eee" stroke-width="1"/>
    <text x="52" y="104" text-anchor="end" font-size="10" font-family="Arial" fill="#888">160</text>
  <line x1="60" y1="40" x2="580" y2="40" stroke="#eee" stroke-width="1"/>
    <text x="52" y="44" text-anchor="end" font-size="10" font-family="Arial" fill="#888">200</text>
  <line x1="60" y1="40" x2="60" y2="340" stroke="#ccc" stroke-width="1"/>
  <line x1="60" y1="340" x2="580" y2="340" stroke="#ccc" stroke-width="1"/>
  <rect x="96.66666666666666" y="160" width="60" height="180" fill="#3498db" rx="3"/>
    <text x="126.66666666666666" y="360" text-anchor="middle" font-size="11" font-family="Arial" fill="#555">Jan</text>
    <text x="126.66666666666666" y="155" text-anchor="middle" font-size="10" font-family="Arial" fill="#333">120</text>
  <rect x="193.33333333333331" y="115" width="60" height="225" fill="#e74c3c" rx="3"/>
    <text x="223.33333333333331" y="360" text-anchor="middle" font-size="11" font-family="Arial" fill="#555">Feb</text>
    <text x="223.33333333333331" y="110" text-anchor="middle" font-size="10" font-family="Arial" fill="#333">150</text>
  <rect x="290" y="70" width="60" height="270" fill="#2ecc71" rx="3"/>
    <text x="320" y="360" text-anchor="middle" font-size="11" font-family="Arial" fill="#555">Mar</text>
    <text x="320" y="65" text-anchor="middle" font-size="10" font-family="Arial" fill="#333">180</text>
  <rect x="386.66666666666663" y="205" width="60" height="135" fill="#f39c12" rx="3"/>
    <text x="416.66666666666663" y="360" text-anchor="middle" font-size="11" font-family="Arial" fill="#555">Apr</text>
    <text x="416.66666666666663" y="200" text-anchor="middle" font-size="10" font-family="Arial" fill="#333">90</text>
  <rect x="483.33333333333326" y="40" width="60" height="300" fill="#9b59b6" rx="3"/>
    <text x="513.3333333333333" y="360" text-anchor="middle" font-size="11" font-family="Arial" fill="#555">May</text>
    <text x="513.3333333333333" y="35" text-anchor="middle" font-size="10" font-family="Arial" fill="#333">200</text>
</svg>