<svg xmlns="http://www.w3.org/2000/svg" width="600" height="400" viewBox="0 0 600 400">
  <rect width="600" height="400" fill="white"/>
  <text x="300" y="25" text-anchor="middle" font-size="16" font-weight="bold" font-family="Arial" fill="#333">Daily Active Users</text>
  <line x1="60" y1="340" x2="580" y2="340" stroke="#eee" stroke-width="1"/>
    <text x="52" y="344" text-anchor="end" font-size="10" font-family="Arial" fill="#888">0</text>
  <line x1="60" y1="280" x2="580" y2="280" stroke="#eee" stroke-width="1"/>
    <text x="52" y="284" text-anchor="end" font-size="10" font-family="Arial" fill="#888">360</text>
  <line x1="60" y1="220" x2="580" y2="220" stroke="#eee" stroke-width="1"/>
    <text x="52" y="224" text-anchor="end" font-size="10" font-family="Arial" fill="#888">720</text>
  <line x1="60" y1="160" x2="580" y2="160" stroke="#eee" stroke-width="1"/>
    <text x="52" y="164" text-anchor="end" font-size="10" font-family="Arial" fill="#888">1080</text>
  <line x1="60" y1="100" x2="580" y2="100" stroke="#eee" stroke-width="1"/>
    <text x="52" y="104" text-anchor="end" font-size="10" font-family="Arial" fill="#888">1440</text>
  <line x1="60" y1="40" x2="580" y2="40" stroke="#eee" stroke-width="1"/>
    <text x="52" y="44" text-anchor="end" font-size="10" font-family="Arial" fill="#888">1800</text>
  <path d="M 60 340 L 60 140 L 190 115 L 320 156.66666666666666 L 450 90 L 580 40 L 580 340 Z" fill="#e74c3c" fill-opacity="0.1"/>
  <polyline points="60,140 190,115 320,156.66666666666666 450,90 580,40" fill="none" stroke="#e74c3c" stroke-width="2.5" stroke-linejoin="round"/>
  <circle cx="60" cy="140" r="4" fill="#e74c3c" stroke="white" stroke-width="2"/>
    <text x="60" y="130" text-anchor="middle" font-size="10" font-family="Arial" fill="#333">1200</text>
  <circle cx="190" cy="115" r="4" fill="#e74c3c" stroke="white" stroke-width="2"/>
    <text x="190" y="105" text-anchor="middle" font-size="10" font-family="Arial" fill="#333">1350</text>
  <circle cx="320" cy="156.66666666666666" r="4" fill="#e74c3c" stroke="white" stroke-width="2"/>
    <text x="320" y="146.66666666666666" text-anchor="middle" font-size="10" font-family="Arial" fill="#333">1100</text>
  <circle cx="450" cy="90" r="4" fill="#e74c3c" stroke="white" stroke-width="2"/>
    <text x="450" y="80" text-anchor="middle" font-size="10" font-family="Arial" fill="#333">1500</text>
  <circle cx="580" cy="40" r="4" fill="#e74c3c" stroke="white" stroke-width="2"/>
    <text x="580" y="30" text-anchor="middle" font-size="10" font-family="Arial" fill="#333">1800</text>
  <text x="60" y="360" text-anchor="middle" font-size="11" font-family="Arial" fill="#555">Mon</text>
  <text x="190" y="360" text-anchor="middle" font-size="11" font-family="Arial" fill="#555">Tue</text>
  <text x="320" y="360" text-anchor="middle" font-size="11" font-family="Arial" fill="#555">Wed</text>
  <text x="450" y="360" text-anchor="middle" font-size="11" font-family="Arial" fill="#555">Thu</text>
  <text x="580" y="360" text-anchor="middle" font-size="11" font-family="Arial" fill="#555">Fri</text>
  <line x1="60" y1="40" x2="60" y2="340" stroke="#ccc" stroke-width="1"/>
  <line x1="60" y1="340" x2="580" y2="340" stroke="#ccc" stroke-width="1"/>
</svg>