<svg xmlns="http://www.w3.org/2000/svg" width="512" height="512" viewBox="0 0 512 512"><path fill="#66cc77" d="M202.5 42L256 95.5L202.5 149L149 95.5ZM363 95.5L309.5 149L256 95.5L309.5 42ZM309.5 470L256 416.5L309.5 363L363 416.5ZM149 416.5L202.5 363L256 416.5L202.5 470ZM95.5 149L149 202.5L95.5 256L42 202.5ZM470 202.5L416.5 256L363 202.5L416.5 149ZM416.5 363L363 309.5L416.5 256L470 309.5ZM42 309.5L95.5 256L149 309.5L95.5 363Z"/><path fill="#b2e5bb" d="M42 149L42 42L149 42ZM363 42L470 42L470 149ZM470 363L470 470L363 470ZM149 470L42 470L42 363Z"/><path fill="#4c4c4c" d="M149 149L256 149L256 256L149 256ZM186 242L242 242L242 186L186 186ZM363 149L363 256L256 256L256 149ZM270 186L270 242L326 242L326 186ZM363 363L256 363L256 256L363 256ZM326 270L270 270L270 326L326 326ZM149 363L149 256L256 256L256 363ZM242 326L242 270L186 270L186 326Z"/></svg>
