<svg xmlns="http://www.w3.org/2000/svg" width="256" height="256" viewBox="0 0 256 256"><rect width="100%" height="100%" fill="#333333" opacity="1.00"/><path fill="#e3e3e3" d="M74 74L74 20L128 20ZM128 20L182 20L182 74ZM182 182L182 236L128 236ZM128 236L74 236L74 182ZM20 128L20 74L74 74ZM182 74L236 74L236 128ZM236 128L236 182L182 182ZM74 182L20 182L20 128Z"/><path fill="#59c7c7" d="M29 47a18,18 0 1,1 36,0a18,18 0 1,1 -36,0M191 47a18,18 0 1,1 36,0a18,18 0 1,1 -36,0M191 209a18,18 0 1,1 36,0a18,18 0 1,1 -36,0M29 209a18,18 0 1,1 36,0a18,18 0 1,1 -36,0"/><path fill="#2e8c8c" d="M93 106.5a13.5,13.5 0 1,1 27,0a13.5,13.5 0 1,1 -27,0M136 106.5a13.5,13.5 0 1,1 27,0a13.5,13.5 0 1,1 -27,0M136 149.5a13.5,13.5 0 1,1 27,0a13.5,13.5 0 1,1 -27,0M93 149.5a13.5,13.5 0 1,1 27,0a13.5,13.5 0 1,1 -27,0"/></svg>
