<svg viewBox="0 0 692 270" xmlns="http://www.w3.org/2000/svg">
<rect width="100%" height="100%" fill="#ffffff" />
<path stroke="#000000" stroke-width="3" d="M204.50 232L204.50 15M210.50 232L210.50 15M243.50 216L243.50 15M252.50 216L252.50 15M258.50 216L258.50 15M294.50 216L294.50 15M300.50 216L300.50 15M321.50 216L321.50 15M342.50 232L342.50 15M348.50 232L348.50 15M354.50 216L354.50 15M390.50 216L390.50 15M396.50 216L396.50 15M402.50 216L402.50 15M438.50 216L438.50 15M459.50 216L459.50 15M471.50 216L471.50 15M480.50 232L480.50 15M486.50 232L486.50 15" />
<path stroke="#000000" stroke-width="9" d="M219.50 216L219.50 15M270.50 216L270.50 15M312.50 216L312.50 15M363.50 216L363.50 15M378.50 216L378.50 15M450.50 216L450.50 15" />
<path stroke="#000000" stroke-width="6" d="M230 216L230 15M419 216L419 15M431 216L431 15" />
<path stroke="#000000" stroke-width="12" d="M284 216L284 15M332 216L332 15" />
<path d="M20.34 236.62Q19.15 237.87 19.15 239.62Q19.15 241.31 20.29 242.38Q21.37 243.42 23.22 243.42Q26.45 243.42 27.02 241.52Q27.29 240.66 27.29 239.62Q27.29 237.66 26.15 236.52Q25.04 235.35 23.22 235.35Q21.51 235.35 20.34 236.62M18.55 243.99Q16.71 242.25 16.71 239.62Q16.71 236.91 18.66 234.95Q20.56 233.00 23.22 233.00Q25.96 233.00 27.83 234.82Q29.73 236.65 29.73 239.62Q29.73 241.46 29.16 242.95Q28.59 244.43 27.56 246.15Q25.31 249.93 22.05 252.82Q21.70 253.13 21.29 253.13Q20.83 253.13 20.48 252.79Q20.13 252.45 20.13 251.96Q20.13 251.46 20.51 251.10Q23.08 248.73 24.93 245.87L25.06 245.60L24.79 245.66Q24.09 245.76 23.22 245.76Q20.34 245.76 18.55 243.99ZM36.06 235.14Q35.71 234.77 35.71 234.28Q35.71 233.78 36.06 233.44Q36.41 233.11 36.93 233.11L47.51 233.11Q48.02 233.11 48.38 233.47Q48.73 233.81 48.73 234.28Q48.73 236.26 47.13 238.57Q46.64 239.30 45.23 241.00Q43.82 242.71 43.22 243.78Q41.46 246.91 41.46 251.93Q41.46 252.43 41.11 252.79Q40.75 253.13 40.29 253.13Q39.83 253.13 39.48 252.79Q39.13 252.45 39.13 251.93Q39.13 246.26 41.19 242.58Q41.81 241.52 43.22 239.72Q44.66 237.90 45.12 237.22Q45.77 236.18 46.02 235.66L46.07 235.48L36.93 235.48Q36.44 235.48 36.06 235.14ZM59.10 235.87Q58.07 236.39 58.07 237.38Q58.07 238.03 58.32 238.52Q58.56 239.02 59.13 239.43Q59.67 239.82 60.03 240.03Q60.41 240.24 61.16 240.61L61.22 240.61L61.27 240.61Q62.03 240.27 62.41 240.06Q62.79 239.85 63.33 239.46Q63.88 239.04 64.12 238.55Q64.37 238.03 64.37 237.38Q64.37 236.39 63.33 235.87Q62.33 235.35 61.22 235.35Q60.11 235.35 59.10 235.87M61.22 243.29Q57.12 245.34 57.12 247.79Q57.12 249.25 58.34 250.06Q59.48 250.86 61.22 250.86L61.76 250.86Q63.20 250.86 64.23 249.95Q65.29 249.04 65.29 247.79Q65.29 245.32 61.33 243.29L61.27 243.24L61.22 243.29M56.58 251.70Q54.71 250.19 54.71 247.79Q54.71 244.64 58.56 242.09L58.72 241.99L58.56 241.88Q55.63 240.16 55.63 237.38Q55.63 235.48 57.37 234.25Q59.08 233.00 61.22 233.00Q63.33 233.00 65.07 234.25Q66.81 235.50 66.81 237.38Q66.81 238.91 66.05 239.98Q65.26 241.02 63.88 241.88L63.71 241.99L63.88 242.09Q67.73 244.64 67.73 247.79Q67.73 249.85 66.16 251.44Q64.58 253.03 62.36 253.21L61.22 253.21Q58.42 253.21 56.58 251.70ZM80.33 253.21L80.22 253.21Q78.62 253.18 77.42 252.69Q76.23 252.22 75.53 251.46Q74.82 250.68 74.41 249.46Q73.98 248.23 73.84 246.98Q73.71 245.76 73.71 244.09Q73.71 242.61 73.74 241.57Q73.79 240.50 73.95 239.28Q74.12 238.03 74.39 237.19Q74.69 236.33 75.17 235.48Q75.66 234.64 76.34 234.15Q77.02 233.65 77.99 233.34Q78.97 233.03 80.22 233.03Q81.44 233.03 82.42 233.34Q83.39 233.65 84.07 234.15Q84.75 234.64 85.26 235.48Q85.75 236.33 86.02 237.19Q86.32 238.05 86.48 239.28Q86.65 240.50 86.67 241.57Q86.73 242.64 86.73 244.09Q86.73 245.14 86.67 246.00Q86.62 246.83 86.43 247.82Q86.27 248.81 86.00 249.56Q85.73 250.29 85.21 250.99Q84.69 251.70 84.04 252.17Q83.39 252.64 82.44 252.92Q81.49 253.21 80.33 253.21M76.15 241.96L76.15 244.09Q76.15 245.27 76.20 246.10Q76.29 246.93 76.53 247.90Q76.75 248.86 77.18 249.46Q77.61 250.08 78.37 250.50Q79.13 250.89 80.22 250.89L80.79 250.89Q81.55 250.89 82.14 250.60Q82.74 250.29 83.09 249.72Q83.47 249.17 83.72 248.55Q83.96 247.90 84.07 247.09Q84.21 246.26 84.23 245.58Q84.29 244.90 84.29 244.09L84.29 242.90Q84.29 242.09 84.26 241.62Q84.26 241.13 84.23 240.40Q84.21 239.64 84.12 239.22Q84.04 238.78 83.91 238.18Q83.77 237.58 83.56 237.22Q83.34 236.86 83.04 236.46Q82.71 236.07 82.33 235.87Q81.93 235.63 81.39 235.50Q80.87 235.37 80.22 235.37Q79.54 235.37 79.00 235.53Q78.48 235.66 78.08 235.92Q77.67 236.18 77.34 236.57Q77.05 236.93 76.83 237.40Q76.61 237.84 76.48 238.39Q76.34 238.91 76.29 239.51Q76.23 240.08 76.18 240.71Q76.15 241.31 76.15 241.96ZM93.28 252.22Q92.71 251.80 92.71 251.18Q92.71 250.68 93.06 250.34Q93.44 249.98 93.93 249.98Q94.09 249.98 94.39 250.08Q96.13 250.84 98.03 250.84Q100.09 250.84 101.50 249.85Q102.93 248.83 103.04 246.91L103.04 246.65Q103.04 245.32 102.18 244.38Q101.36 243.47 100.17 243.08Q99.00 242.71 97.56 242.71Q97.10 242.71 96.75 242.38Q96.40 242.01 96.40 241.52Q96.40 241.05 96.64 240.79L101.63 235.48L94.01 235.48Q93.52 235.48 93.14 235.14Q92.79 234.77 92.79 234.28Q92.79 233.78 93.14 233.44Q93.50 233.11 94.01 233.11L103.59 233.11Q104.07 233.11 104.43 233.47Q104.81 233.81 104.81 234.28L104.81 235.21Q104.81 235.63 104.43 236.00L100.06 240.61L100.28 240.66Q102.58 241.23 104.05 242.77Q105.48 244.30 105.48 246.62L105.48 247.04Q105.35 249.88 103.18 251.54Q101.06 253.21 98.03 253.21Q97.27 253.21 96.51 253.13Q95.75 253.05 94.80 252.87Q93.85 252.66 93.28 252.22ZM118.33 253.21L118.22 253.21Q116.62 253.18 115.42 252.69Q114.23 252.22 113.53 251.46Q112.82 250.68 112.41 249.46Q111.98 248.23 111.84 246.98Q111.71 245.76 111.71 244.09Q111.71 242.61 111.74 241.57Q111.79 240.50 111.95 239.28Q112.12 238.03 112.39 237.19Q112.69 236.33 113.17 235.48Q113.66 234.64 114.34 234.15Q115.02 233.65 115.99 233.34Q116.97 233.03 118.22 233.03Q119.44 233.03 120.42 233.34Q121.39 233.65 122.07 234.15Q122.75 234.64 123.26 235.48Q123.75 236.33 124.02 237.19Q124.32 238.05 124.48 239.28Q124.65 240.50 124.67 241.57Q124.73 242.64 124.73 244.09Q124.73 245.14 124.67 246.00Q124.62 246.83 124.43 247.82Q124.27 248.81 124.00 249.56Q123.73 250.29 123.21 250.99Q122.69 251.70 122.04 252.17Q121.39 252.64 120.44 252.92Q119.49 253.21 118.33 253.21M114.15 241.96L114.15 244.09Q114.15 245.27 114.20 246.10Q114.29 246.93 114.53 247.90Q114.75 248.86 115.18 249.46Q115.61 250.08 116.37 250.50Q117.13 250.89 118.22 250.89L118.79 250.89Q119.55 250.89 120.14 250.60Q120.74 250.29 121.09 249.72Q121.47 249.17 121.72 248.55Q121.96 247.90 122.07 247.09Q122.21 246.26 122.23 245.58Q122.29 244.90 122.29 244.09L122.29 242.90Q122.29 242.09 122.26 241.62Q122.26 241.13 122.23 240.40Q122.21 239.64 122.12 239.22Q122.04 238.78 121.91 238.18Q121.77 237.58 121.56 237.22Q121.34 236.86 121.04 236.46Q120.71 236.07 120.33 235.87Q119.93 235.63 119.39 235.50Q118.87 235.37 118.22 235.37Q117.54 235.37 117.00 235.53Q116.48 235.66 116.08 235.92Q115.67 236.18 115.34 236.57Q115.05 236.93 114.83 237.40Q114.61 237.84 114.48 238.39Q114.34 238.91 114.29 239.51Q114.23 240.08 114.18 240.71Q114.15 241.31 114.15 241.96ZM132.61 251.52Q130.79 249.82 130.71 247.04L130.71 246.72Q130.71 243.47 132.58 240.50Q133.34 239.28 134.42 237.92Q135.48 236.54 136.22 235.74Q136.95 234.90 138.30 233.42Q138.60 233.08 139.14 233.08Q139.61 233.08 139.96 233.44Q140.31 233.78 140.31 234.25Q140.31 234.69 140.01 235.06Q136.95 238.39 135.51 240.40L135.32 240.66L135.62 240.61Q136.41 240.45 137.22 240.45Q140.18 240.45 141.94 242.22Q143.73 244.02 143.73 247.04Q143.73 249.77 141.88 251.49Q140.04 253.21 137.22 253.21Q134.40 253.21 132.61 251.52M134.24 243.94Q133.15 245.06 133.15 247.04Q133.15 248.81 134.29 249.85Q135.40 250.86 137.22 250.86Q139.01 250.86 140.12 249.82Q141.29 248.78 141.29 247.04Q141.29 245.01 140.23 243.91Q139.20 242.79 137.22 242.79Q135.29 242.79 134.24 243.94ZM150.06 248.26Q149.71 247.92 149.71 247.43L149.71 246.31Q149.71 246.10 149.84 245.81L155.62 233.76Q155.73 233.47 156.03 233.29Q156.33 233.08 156.65 233.08Q157.14 233.08 157.49 233.44Q157.85 233.78 157.85 234.25Q157.85 234.51 157.71 234.75L152.29 246.26L157.58 246.26L157.58 243.10Q157.58 242.64 157.93 242.30Q158.28 241.93 158.74 241.93Q159.20 241.93 159.56 242.30Q159.93 242.64 159.93 243.10L159.93 246.26L161.51 246.26Q162.02 246.26 162.38 246.62Q162.73 246.96 162.73 247.43Q162.73 247.90 162.35 248.26Q162.00 248.60 161.51 248.60L159.93 248.60L159.93 251.96Q159.93 252.43 159.56 252.77Q159.20 253.13 158.74 253.13Q158.28 253.13 157.93 252.79Q157.58 252.43 157.58 251.96L157.58 248.60L150.93 248.60Q150.44 248.60 150.06 248.26ZM175.33 253.21L175.22 253.21Q173.62 253.18 172.42 252.69Q171.23 252.22 170.53 251.46Q169.82 250.68 169.41 249.46Q168.98 248.23 168.84 246.98Q168.71 245.76 168.71 244.09Q168.71 242.61 168.74 241.57Q168.79 240.50 168.95 239.28Q169.12 238.03 169.39 237.19Q169.69 236.33 170.17 235.48Q170.66 234.64 171.34 234.15Q172.02 233.65 172.99 233.34Q173.97 233.03 175.22 233.03Q176.44 233.03 177.42 233.34Q178.39 233.65 179.07 234.15Q179.75 234.64 180.26 235.48Q180.75 236.33 181.02 237.19Q181.32 238.05 181.48 239.28Q181.65 240.50 181.67 241.57Q181.73 242.64 181.73 244.09Q181.73 245.14 181.67 246.00Q181.62 246.83 181.43 247.82Q181.27 248.81 181.00 249.56Q180.73 250.29 180.21 250.99Q179.69 251.70 179.04 252.17Q178.39 252.64 177.44 252.92Q176.49 253.21 175.33 253.21M171.15 241.96L171.15 244.09Q171.15 245.27 171.20 246.10Q171.29 246.93 171.53 247.90Q171.75 248.86 172.18 249.46Q172.61 250.08 173.37 250.50Q174.13 250.89 175.22 250.89L175.79 250.89Q176.55 250.89 177.14 250.60Q177.74 250.29 178.09 249.72Q178.47 249.17 178.72 248.55Q178.96 247.90 179.07 247.09Q179.21 246.26 179.23 245.58Q179.29 244.90 179.29 244.09L179.29 242.90Q179.29 242.09 179.26 241.62Q179.26 241.13 179.23 240.40Q179.21 239.64 179.12 239.22Q179.04 238.78 178.91 238.18Q178.77 237.58 178.56 237.22Q178.34 236.86 178.04 236.46Q177.71 236.07 177.33 235.87Q176.93 235.63 176.39 235.50Q175.87 235.37 175.22 235.37Q174.54 235.37 174.00 235.53Q173.48 235.66 173.08 235.92Q172.67 236.18 172.34 236.57Q172.05 236.93 171.83 237.40Q171.61 237.84 171.48 238.39Q171.34 238.91 171.29 239.51Q171.23 240.08 171.18 240.71Q171.15 241.31 171.15 241.96ZM189.61 251.52Q187.79 249.82 187.71 247.04L187.71 246.72Q187.71 243.47 189.58 240.50Q190.34 239.28 191.42 237.92Q192.48 236.54 193.22 235.74Q193.95 234.90 195.30 233.42Q195.60 233.08 196.14 233.08Q196.61 233.08 196.96 233.44Q197.31 233.78 197.31 234.25Q197.31 234.69 197.01 235.06Q193.95 238.39 192.51 240.40L192.32 240.66L192.62 240.61Q193.41 240.45 194.22 240.45Q197.18 240.45 198.94 242.22Q200.73 244.02 200.73 247.04Q200.73 249.77 198.88 251.49Q197.04 253.21 194.22 253.21Q191.40 253.21 189.61 251.52M191.24 243.94Q190.15 245.06 190.15 247.04Q190.15 248.81 191.29 249.85Q192.40 250.86 194.22 250.86Q196.01 250.86 197.12 249.82Q198.29 248.78 198.29 247.04Q198.29 245.01 197.23 243.91Q196.20 242.79 194.22 242.79Q192.29 242.79 191.24 243.94ZM207.90 239.09Q207.55 238.73 207.55 238.26Q207.55 237.71 207.90 237.45L212.87 233.37Q213.22 233.08 213.65 233.08L214.52 233.08Q215.01 233.08 215.36 233.44Q215.74 233.78 215.74 234.25L215.74 251.96Q215.74 252.43 215.36 252.79Q215.01 253.13 214.52 253.13Q214.03 253.13 213.65 252.79Q213.30 252.45 213.30 251.96L213.30 236.10L209.58 239.15Q209.23 239.43 208.77 239.43Q208.25 239.43 207.90 239.09ZM226.77 252.87Q226.41 252.53 226.41 252.04Q226.41 251.52 226.77 251.18Q227.15 250.84 227.63 250.84Q233.11 250.84 234.71 247.90Q235.20 247.01 235.20 246.20Q235.20 244.30 234.28 243.34Q233.06 241.96 229.99 241.96Q229.15 241.96 228.29 242.04L228.18 242.04Q227.69 242.04 227.31 241.72Q226.96 241.39 226.96 240.92L226.96 240.84L227.34 234.20Q227.39 233.73 227.72 233.42Q228.07 233.11 228.56 233.11L236.26 233.11Q236.78 233.11 237.13 233.47Q237.48 233.81 237.48 234.28Q237.48 234.75 237.10 235.11Q236.75 235.48 236.26 235.48L229.70 235.48L229.48 239.56L229.99 239.56Q233.44 239.56 235.53 241.26Q237.64 242.92 237.64 246.20Q237.64 247.58 237.02 248.78Q236.37 250.01 235.39 250.86Q232.79 253.21 227.63 253.21Q227.15 253.21 226.77 252.87M228.26 242.04Q228.26 242.04 228.29 242.04Q228.29 242.04 228.26 242.04ZM245.06 235.14Q244.71 234.77 244.71 234.28Q244.71 233.78 245.06 233.44Q245.41 233.11 245.93 233.11L256.51 233.11Q257.02 233.11 257.38 233.47Q257.73 233.81 257.73 234.28Q257.73 236.26 256.13 238.57Q255.64 239.30 254.23 241.00Q252.82 242.71 252.22 243.78Q250.46 246.91 250.46 251.93Q250.46 252.43 250.11 252.79Q249.75 253.13 249.29 253.13Q248.83 253.13 248.48 252.79Q248.13 252.45 248.13 251.93Q248.13 246.26 250.19 242.58Q250.81 241.52 252.22 239.72Q253.66 237.90 254.12 237.22Q254.77 236.18 255.02 235.66L255.07 235.48L245.93 235.48Q245.44 235.48 245.06 235.14ZM265.63 252.45Q265.25 252.06 265.25 251.54Q265.25 250.99 265.61 250.60Q265.96 250.24 266.48 250.24L269.08 250.24L269.08 235.76L267.02 235.76Q266.53 235.76 266.18 235.37Q265.80 234.98 265.80 234.46Q265.80 233.94 266.15 233.55Q266.50 233.16 267.02 233.16L273.42 233.16Q273.93 233.16 274.29 233.55Q274.64 233.94 274.64 234.46Q274.64 234.98 274.26 235.37Q273.91 235.76 273.42 235.76L271.36 235.76L271.36 250.24L273.96 250.24Q274.48 250.24 274.83 250.60Q275.18 250.99 275.18 251.54Q275.18 252.06 274.80 252.45Q274.45 252.84 273.96 252.84L266.48 252.84Q265.99 252.84 265.63 252.45ZM285.48 252.11Q283.90 250.81 283.63 248.81L283.63 248.60Q283.63 248.08 283.98 247.71Q284.36 247.32 284.85 247.32Q285.31 247.32 285.67 247.64Q286.02 247.95 286.07 248.42Q286.24 249.59 287.13 250.21Q287.97 250.84 289.08 250.84Q290.39 250.84 291.39 250.01Q292.37 249.28 292.37 247.74Q292.37 247.12 292.18 246.59Q291.99 246.10 291.61 245.73Q291.25 245.37 290.95 245.16Q290.66 244.93 290.14 244.67Q289.76 244.46 288.97 244.07Q288.22 243.65 287.75 243.39Q287.29 243.10 286.59 242.69Q285.88 242.25 285.48 241.83Q285.04 241.39 284.61 240.79Q284.20 240.19 283.98 239.43Q283.79 238.70 283.79 237.79Q283.79 235.66 285.42 234.28Q287.05 232.87 289.19 232.82L289.35 232.82Q291.28 232.82 292.64 233.83Q294.05 234.85 294.51 236.59Q294.56 236.80 294.56 236.91Q294.56 237.43 294.21 237.82Q293.86 238.18 293.34 238.18Q292.83 238.18 292.53 237.84Q292.20 237.48 291.96 236.93Q291.69 236.31 291.42 236.05Q290.68 235.37 289.38 235.37Q288.16 235.37 287.21 236.02Q286.24 236.67 286.24 237.77Q286.24 238.94 286.80 239.56Q287.32 240.19 288.30 240.71Q288.73 241.00 289.68 241.46Q290.63 241.96 291.14 242.27Q291.69 242.56 292.50 243.16Q293.29 243.73 293.72 244.33Q294.18 244.90 294.48 245.79Q294.81 246.67 294.81 247.74Q294.81 249.95 293.42 251.46Q292.04 252.97 290.01 253.34Q289.52 253.42 289.03 253.42Q287.05 253.42 285.48 252.11ZM302.06 252.48Q301.71 252.09 301.71 251.54L301.71 234.41Q301.71 233.83 302.06 233.44Q302.41 233.08 302.93 233.08L307.46 233.08Q308.44 233.08 309.01 233.11Q309.58 233.16 310.39 233.34Q311.18 233.55 311.77 233.89Q312.97 234.62 313.64 235.89Q314.32 237.17 314.32 238.65Q314.32 241.00 312.75 242.45L312.64 242.56L312.75 242.66Q313.67 243.44 314.19 244.59Q314.73 245.73 314.73 246.98L314.73 247.04Q314.73 248.34 314.19 249.51Q313.67 250.66 312.69 251.46Q311.69 252.27 310.42 252.56Q309.14 252.84 307.46 252.84L302.93 252.84Q302.44 252.84 302.06 252.48M304.15 243.83L304.15 250.21L307.46 250.19Q312.29 250.19 312.29 246.96L312.29 246.93Q312.26 245.32 311.09 244.56Q309.98 243.83 308.22 243.83L304.15 243.83M304.15 235.66L304.15 241.20L308.22 241.23Q311.91 241.23 311.91 238.65L311.91 238.37Q311.83 237.51 311.45 236.96Q311.09 236.39 310.44 236.10Q309.79 235.84 309.11 235.76Q308.44 235.66 307.46 235.66L304.15 235.66ZM321.47 252.90Q321.09 252.51 321.09 251.96L321.09 234.12Q321.09 233.57 321.44 233.21Q321.82 232.82 322.31 232.82L323.31 232.82Q323.64 232.82 323.94 233.03Q324.26 233.21 324.40 233.55L330.91 248.31L330.91 234.07Q330.91 233.55 331.26 233.18Q331.64 232.79 332.13 232.79Q332.62 232.79 332.97 233.18Q333.35 233.55 333.35 234.10L333.35 251.93Q333.35 252.48 332.97 252.87Q332.62 253.26 332.13 253.26L331.10 253.26Q330.34 253.26 330.01 252.56L323.53 237.79L323.53 251.98Q323.53 252.51 323.15 252.90Q322.80 253.29 322.31 253.29Q321.82 253.29 321.47 252.90ZM362.34 236.62Q361.15 237.87 361.15 239.62Q361.15 241.31 362.29 242.38Q363.37 243.42 365.22 243.42Q368.45 243.42 369.02 241.52Q369.29 240.66 369.29 239.62Q369.29 237.66 368.15 236.52Q367.04 235.35 365.22 235.35Q363.51 235.35 362.34 236.62M360.55 243.99Q358.71 242.25 358.71 239.62Q358.71 236.91 360.66 234.95Q362.56 233.00 365.22 233.00Q367.96 233.00 369.83 234.82Q371.73 236.65 371.73 239.62Q371.73 241.46 371.16 242.95Q370.59 244.43 369.56 246.15Q367.31 249.93 364.05 252.82Q363.70 253.13 363.29 253.13Q362.83 253.13 362.48 252.79Q362.13 252.45 362.13 251.96Q362.13 251.46 362.51 251.10Q365.08 248.73 366.93 245.87L367.06 245.60L366.79 245.66Q366.09 245.76 365.22 245.76Q362.34 245.76 360.55 243.99ZM378.06 235.14Q377.71 234.77 377.71 234.28Q377.71 233.78 378.06 233.44Q378.41 233.11 378.93 233.11L389.51 233.11Q390.02 233.11 390.38 233.47Q390.73 233.81 390.73 234.28Q390.73 236.26 389.13 238.57Q388.64 239.30 387.23 241.00Q385.82 242.71 385.22 243.78Q383.46 246.91 383.46 251.93Q383.46 252.43 383.11 252.79Q382.75 253.13 382.29 253.13Q381.83 253.13 381.48 252.79Q381.13 252.45 381.13 251.93Q381.13 246.26 383.19 242.58Q383.81 241.52 385.22 239.72Q386.66 237.90 387.12 237.22Q387.77 236.18 388.02 235.66L388.07 235.48L378.93 235.48Q378.44 235.48 378.06 235.14ZM401.10 235.87Q400.07 236.39 400.07 237.38Q400.07 238.03 400.32 238.52Q400.56 239.02 401.13 239.43Q401.67 239.82 402.03 240.03Q402.41 240.24 403.16 240.61L403.22 240.61L403.27 240.61Q404.03 240.27 404.41 240.06Q404.79 239.85 405.33 239.46Q405.88 239.04 406.12 238.55Q406.37 238.03 406.37 237.38Q406.37 236.39 405.33 235.87Q404.33 235.35 403.22 235.35Q402.11 235.35 401.10 235.87M403.22 243.29Q399.12 245.34 399.12 247.79Q399.12 249.25 400.34 250.06Q401.48 250.86 403.22 250.86L403.76 250.86Q405.20 250.86 406.23 249.95Q407.29 249.04 407.29 247.79Q407.29 245.32 403.33 243.29L403.27 243.24L403.22 243.29M398.58 251.70Q396.71 250.19 396.71 247.79Q396.71 244.64 400.56 242.09L400.72 241.99L400.56 241.88Q397.63 240.16 397.63 237.38Q397.63 235.48 399.37 234.25Q401.08 233.00 403.22 233.00Q405.33 233.00 407.07 234.25Q408.81 235.50 408.81 237.38Q408.81 238.91 408.05 239.98Q407.26 241.02 405.88 241.88L405.71 241.99L405.88 242.09Q409.73 244.64 409.73 247.79Q409.73 249.85 408.16 251.44Q406.58 253.03 404.36 253.21L403.22 253.21Q400.42 253.21 398.58 251.70ZM415.84 243.47L415.84 242.74Q415.84 242.25 416.20 241.91Q416.55 241.57 417.07 241.57L427.92 241.57Q428.43 241.57 428.78 241.93Q429.14 242.27 429.14 242.74L429.14 243.47Q429.14 243.94 428.78 244.30Q428.43 244.64 427.92 244.64L417.07 244.64Q416.55 244.64 416.20 244.30Q415.84 243.96 415.84 243.47ZM441.33 253.21L441.22 253.21Q439.62 253.18 438.42 252.69Q437.23 252.22 436.53 251.46Q435.82 250.68 435.41 249.46Q434.98 248.23 434.84 246.98Q434.71 245.76 434.71 244.09Q434.71 242.61 434.74 241.57Q434.79 240.50 434.95 239.28Q435.12 238.03 435.39 237.19Q435.69 236.33 436.17 235.48Q436.66 234.64 437.34 234.15Q438.02 233.65 438.99 233.34Q439.97 233.03 441.22 233.03Q442.44 233.03 443.42 233.34Q444.39 233.65 445.07 234.15Q445.75 234.64 446.26 235.48Q446.75 236.33 447.02 237.19Q447.32 238.05 447.48 239.28Q447.65 240.50 447.67 241.57Q447.73 242.64 447.73 244.09Q447.73 245.14 447.67 246.00Q447.62 246.83 447.43 247.82Q447.27 248.81 447.00 249.56Q446.73 250.29 446.21 250.99Q445.69 251.70 445.04 252.17Q444.39 252.64 443.44 252.92Q442.49 253.21 441.33 253.21M437.15 241.96L437.15 244.09Q437.15 245.27 437.20 246.10Q437.29 246.93 437.53 247.90Q437.75 248.86 438.18 249.46Q438.61 250.08 439.37 250.50Q440.13 250.89 441.22 250.89L441.79 250.89Q442.55 250.89 443.14 250.60Q443.74 250.29 444.09 249.72Q444.47 249.17 444.72 248.55Q444.96 247.90 445.07 247.09Q445.21 246.26 445.23 245.58Q445.29 244.90 445.29 244.09L445.29 242.90Q445.29 242.09 445.26 241.62Q445.26 241.13 445.23 240.40Q445.21 239.64 445.12 239.22Q445.04 238.78 444.91 238.18Q444.77 237.58 444.56 237.22Q444.34 236.86 444.04 236.46Q443.71 236.07 443.33 235.87Q442.93 235.63 442.39 235.50Q441.87 235.37 441.22 235.37Q440.54 235.37 440.00 235.53Q439.48 235.66 439.08 235.92Q438.67 236.18 438.34 236.57Q438.05 236.93 437.83 237.40Q437.61 237.84 437.48 238.39Q437.34 238.91 437.29 239.51Q437.23 240.08 437.18 240.71Q437.15 241.31 437.15 241.96ZM453.84 243.47L453.84 242.74Q453.84 242.25 454.20 241.91Q454.55 241.57 455.07 241.57L465.92 241.57Q466.43 241.57 466.78 241.93Q467.14 242.27 467.14 242.74L467.14 243.47Q467.14 243.94 466.78 244.30Q466.43 244.64 465.92 244.64L455.07 244.64Q454.55 244.64 454.20 244.30Q453.84 243.96 453.84 243.47ZM473.28 252.22Q472.71 251.80 472.71 251.18Q472.71 250.68 473.06 250.34Q473.44 249.98 473.93 249.98Q474.09 249.98 474.39 250.08Q476.13 250.84 478.03 250.84Q480.09 250.84 481.50 249.85Q482.93 248.83 483.04 246.91L483.04 246.65Q483.04 245.32 482.18 244.38Q481.36 243.47 480.17 243.08Q479.00 242.71 477.56 242.71Q477.10 242.71 476.75 242.38Q476.40 242.01 476.40 241.52Q476.40 241.05 476.64 240.79L481.63 235.48L474.01 235.48Q473.52 235.48 473.14 235.14Q472.79 234.77 472.79 234.28Q472.79 233.78 473.14 233.44Q473.50 233.11 474.01 233.11L483.59 233.11Q484.07 233.11 484.43 233.47Q484.81 233.81 484.81 234.28L484.81 235.21Q484.81 235.63 484.43 236.00L480.06 240.61L480.28 240.66Q482.58 241.23 484.05 242.77Q485.48 244.30 485.48 246.62L485.48 247.04Q485.35 249.88 483.18 251.54Q481.06 253.21 478.03 253.21Q477.27 253.21 476.51 253.13Q475.75 253.05 474.80 252.87Q473.85 252.66 473.28 252.22ZM498.33 253.21L498.22 253.21Q496.62 253.18 495.42 252.69Q494.23 252.22 493.53 251.46Q492.82 250.68 492.41 249.46Q491.98 248.23 491.84 246.98Q491.71 245.76 491.71 244.09Q491.71 242.61 491.74 241.57Q491.79 240.50 491.95 239.28Q492.12 238.03 492.39 237.19Q492.69 236.33 493.17 235.48Q493.66 234.64 494.34 234.15Q495.02 233.65 495.99 233.34Q496.97 233.03 498.22 233.03Q499.44 233.03 500.42 233.34Q501.39 233.65 502.07 234.15Q502.75 234.64 503.26 235.48Q503.75 236.33 504.02 237.19Q504.32 238.05 504.48 239.28Q504.65 240.50 504.67 241.57Q504.73 242.64 504.73 244.09Q504.73 245.14 504.67 246.00Q504.62 246.83 504.43 247.82Q504.27 248.81 504.00 249.56Q503.73 250.29 503.21 250.99Q502.69 251.70 502.04 252.17Q501.39 252.64 500.44 252.92Q499.49 253.21 498.33 253.21M494.15 241.96L494.15 244.09Q494.15 245.27 494.20 246.10Q494.29 246.93 494.53 247.90Q494.75 248.86 495.18 249.46Q495.61 250.08 496.37 250.50Q497.13 250.89 498.22 250.89L498.79 250.89Q499.55 250.89 500.14 250.60Q500.74 250.29 501.09 249.72Q501.47 249.17 501.72 248.55Q501.96 247.90 502.07 247.09Q502.21 246.26 502.23 245.58Q502.29 244.90 502.29 244.09L502.29 242.90Q502.29 242.09 502.26 241.62Q502.26 241.13 502.23 240.40Q502.21 239.64 502.12 239.22Q502.04 238.78 501.91 238.18Q501.77 237.58 501.56 237.22Q501.34 236.86 501.04 236.46Q500.71 236.07 500.33 235.87Q499.93 235.63 499.39 235.50Q498.87 235.37 498.22 235.37Q497.54 235.37 497.00 235.53Q496.48 235.66 496.08 235.92Q495.67 236.18 495.34 236.57Q495.05 236.93 494.83 237.40Q494.61 237.84 494.48 238.39Q494.34 238.91 494.29 239.51Q494.23 240.08 494.18 240.71Q494.15 241.31 494.15 241.96ZM512.61 251.52Q510.79 249.82 510.71 247.04L510.71 246.72Q510.71 243.47 512.58 240.50Q513.34 239.28 514.42 237.92Q515.48 236.54 516.22 235.74Q516.95 234.90 518.30 233.42Q518.60 233.08 519.14 233.08Q519.61 233.08 519.96 233.44Q520.31 233.78 520.31 234.25Q520.31 234.69 520.01 235.06Q516.95 238.39 515.51 240.40L515.32 240.66L515.62 240.61Q516.41 240.45 517.22 240.45Q520.18 240.45 521.94 242.22Q523.73 244.02 523.73 247.04Q523.73 249.77 521.88 251.49Q520.04 253.21 517.22 253.21Q514.40 253.21 512.61 251.52M514.24 243.94Q513.15 245.06 513.15 247.04Q513.15 248.81 514.29 249.85Q515.40 250.86 517.22 250.86Q519.01 250.86 520.12 249.82Q521.29 248.78 521.29 247.04Q521.29 245.01 520.23 243.91Q519.20 242.79 517.22 242.79Q515.29 242.79 514.24 243.94ZM529.84 243.47L529.84 242.74Q529.84 242.25 530.20 241.91Q530.55 241.57 531.07 241.57L541.92 241.57Q542.43 241.57 542.78 241.93Q543.14 242.27 543.14 242.74L543.14 243.47Q543.14 243.94 542.78 244.30Q542.43 244.64 541.92 244.64L531.07 244.64Q530.55 244.64 530.20 244.30Q529.84 243.96 529.84 243.47ZM549.06 248.26Q548.71 247.92 548.71 247.43L548.71 246.31Q548.71 246.10 548.84 245.81L554.62 233.76Q554.73 233.47 555.03 233.29Q555.33 233.08 555.65 233.08Q556.14 233.08 556.49 233.44Q556.85 233.78 556.85 234.25Q556.85 234.51 556.71 234.75L551.29 246.26L556.58 246.26L556.58 243.10Q556.58 242.64 556.93 242.30Q557.28 241.93 557.74 241.93Q558.20 241.93 558.56 242.30Q558.93 242.64 558.93 243.10L558.93 246.26L560.51 246.26Q561.02 246.26 561.38 246.62Q561.73 246.96 561.73 247.43Q561.73 247.90 561.35 248.26Q561.00 248.60 560.51 248.60L558.93 248.60L558.93 251.96Q558.93 252.43 558.56 252.77Q558.20 253.13 557.74 253.13Q557.28 253.13 556.93 252.79Q556.58 252.43 556.58 251.96L556.58 248.60L549.93 248.60Q549.44 248.60 549.06 248.26ZM574.33 253.21L574.22 253.21Q572.62 253.18 571.42 252.69Q570.23 252.22 569.53 251.46Q568.82 250.68 568.41 249.46Q567.98 248.23 567.84 246.98Q567.71 245.76 567.71 244.09Q567.71 242.61 567.74 241.57Q567.79 240.50 567.95 239.28Q568.12 238.03 568.39 237.19Q568.69 236.33 569.17 235.48Q569.66 234.64 570.34 234.15Q571.02 233.65 571.99 233.34Q572.97 233.03 574.22 233.03Q575.44 233.03 576.42 233.34Q577.39 233.65 578.07 234.15Q578.75 234.64 579.26 235.48Q579.75 236.33 580.02 237.19Q580.32 238.05 580.48 239.28Q580.65 240.50 580.67 241.57Q580.73 242.64 580.73 244.09Q580.73 245.14 580.67 246.00Q580.62 246.83 580.43 247.82Q580.27 248.81 580.00 249.56Q579.73 250.29 579.21 250.99Q578.69 251.70 578.04 252.17Q577.39 252.64 576.44 252.92Q575.49 253.21 574.33 253.21M570.15 241.96L570.15 244.09Q570.15 245.27 570.20 246.10Q570.29 246.93 570.53 247.90Q570.75 248.86 571.18 249.46Q571.61 250.08 572.37 250.50Q573.13 250.89 574.22 250.89L574.79 250.89Q575.55 250.89 576.14 250.60Q576.74 250.29 577.09 249.72Q577.47 249.17 577.72 248.55Q577.96 247.90 578.07 247.09Q578.21 246.26 578.23 245.58Q578.29 244.90 578.29 244.09L578.29 242.90Q578.29 242.09 578.26 241.62Q578.26 241.13 578.23 240.40Q578.21 239.64 578.12 239.22Q578.04 238.78 577.91 238.18Q577.77 237.58 577.56 237.22Q577.34 236.86 577.04 236.46Q576.71 236.07 576.33 235.87Q575.93 235.63 575.39 235.50Q574.87 235.37 574.22 235.37Q573.54 235.37 573.00 235.53Q572.48 235.66 572.08 235.92Q571.67 236.18 571.34 236.57Q571.05 236.93 570.83 237.40Q570.61 237.84 570.48 238.39Q570.34 238.91 570.29 239.51Q570.23 240.08 570.18 240.71Q570.15 241.31 570.15 241.96ZM588.61 251.52Q586.79 249.82 586.71 247.04L586.71 246.72Q586.71 243.47 588.58 240.50Q589.34 239.28 590.42 237.92Q591.48 236.54 592.22 235.74Q592.95 234.90 594.30 233.42Q594.60 233.08 595.14 233.08Q595.61 233.08 595.96 233.44Q596.31 233.78 596.31 234.25Q596.31 234.69 596.01 235.06Q592.95 238.39 591.51 240.40L591.32 240.66L591.62 240.61Q592.41 240.45 593.22 240.45Q596.18 240.45 597.94 242.22Q599.73 244.02 599.73 247.04Q599.73 249.77 597.88 251.49Q596.04 253.21 593.22 253.21Q590.40 253.21 588.61 251.52M590.24 243.94Q589.15 245.06 589.15 247.04Q589.15 248.81 590.29 249.85Q591.40 250.86 593.22 250.86Q595.01 250.86 596.12 249.82Q597.29 248.78 597.29 247.04Q597.29 245.01 596.23 243.91Q595.20 242.79 593.22 242.79Q591.29 242.79 590.24 243.94ZM606.90 239.09Q606.55 238.73 606.55 238.26Q606.55 237.71 606.90 237.45L611.87 233.37Q612.22 233.08 612.65 233.08L613.52 233.08Q614.01 233.08 614.36 233.44Q614.74 233.78 614.74 234.25L614.74 251.96Q614.74 252.43 614.36 252.79Q614.01 253.13 613.52 253.13Q613.03 253.13 612.65 252.79Q612.30 252.45 612.30 251.96L612.30 236.10L608.58 239.15Q608.23 239.43 607.77 239.43Q607.25 239.43 606.90 239.09ZM625.77 252.87Q625.41 252.53 625.41 252.04Q625.41 251.52 625.77 251.18Q626.15 250.84 626.63 250.84Q632.11 250.84 633.71 247.90Q634.20 247.01 634.20 246.20Q634.20 244.30 633.28 243.34Q632.06 241.96 628.99 241.96Q628.15 241.96 627.29 242.04L627.18 242.04Q626.69 242.04 626.31 241.72Q625.96 241.39 625.96 240.92L625.96 240.84L626.34 234.20Q626.39 233.73 626.72 233.42Q627.07 233.11 627.56 233.11L635.26 233.11Q635.78 233.11 636.13 233.47Q636.48 233.81 636.48 234.28Q636.48 234.75 636.10 235.11Q635.75 235.48 635.26 235.48L628.70 235.48L628.48 239.56L628.99 239.56Q632.44 239.56 634.53 241.26Q636.64 242.92 636.64 246.20Q636.64 247.58 636.02 248.78Q635.37 250.01 634.39 250.86Q631.79 253.21 626.63 253.21Q626.15 253.21 625.77 252.87M627.26 242.04Q627.26 242.04 627.29 242.04Q627.29 242.04 627.26 242.04ZM643.84 243.47L643.84 242.74Q643.84 242.25 644.20 241.91Q644.55 241.57 645.07 241.57L655.92 241.57Q656.43 241.57 656.78 241.93Q657.14 242.27 657.14 242.74L657.14 243.47Q657.14 243.94 656.78 244.30Q656.43 244.64 655.92 244.64L645.07 244.64Q644.55 244.64 644.20 244.30Q643.84 243.96 643.84 243.47ZM663.06 235.14Q662.71 234.77 662.71 234.28Q662.71 233.78 663.06 233.44Q663.41 233.11 663.93 233.11L674.51 233.11Q675.02 233.11 675.38 233.47Q675.73 233.81 675.73 234.28Q675.73 236.26 674.13 238.57Q673.64 239.30 672.23 241.00Q670.82 242.71 670.22 243.78Q668.46 246.91 668.46 251.93Q668.46 252.43 668.11 252.79Q667.75 253.13 667.29 253.13Q666.83 253.13 666.48 252.79Q666.13 252.45 666.13 251.93Q666.13 246.26 668.19 242.58Q668.81 241.52 670.22 239.72Q671.66 237.90 672.12 237.22Q672.77 236.18 673.02 235.66L673.07 235.48L663.93 235.48Q663.44 235.48 663.06 235.14Z" fill="#000000" />
</svg>
